# xmcd
#
# Track frame offsets:
#	150
#	13663
#	26988
#	40489
#	52159
#	63486
#	74856
#	87556
#	102615
#	118317
#	129228
#	139424
#	153913
#	165655
#	176639
#
# Disc length: 2551 seconds
#
# Revision: 0
# Processed by: cddbd v1.5.2PL0 Copyright (c) Steve Scherf et al.
# Submitted via: audiograbber 1.83.01
#
DISCID=eb09f50f
DTITLE=Gene Pitney - 24 Hours From Tulsa CD1
DYEAR=2002
DGENRE=Country
TTITLE0=Twenty Four Hours From Tulsa
TTITLE1=Town without pity
TTITLE2=(The Man Who Shot) Liberty Valance
TTITLE3=It Hurts to Be in Love
TTITLE4=17 - Yesterday's Hero
TTITLE5=Gene Pitney - If I Didn't Have A Dime
TTITLE6=Just One Smile
TTITLE7=Yours Until Tomorrow
TTITLE8=Unchained Melody
TTITLE9=Nobody Needs Your Love
TTITLE10=Hello Mary Lou
TTITLE11=Somewhere in the Country
TTITLE12=Backstage ( I'm Lonely)
TTITLE13=Born to lose
TTITLE14=She's a heartbreaker
EXTD=
EXTT0=
EXTT1=
EXTT2=
EXTT3=
EXTT4=
EXTT5=
EXTT6=
EXTT7=
EXTT8=
EXTT9=
EXTT10=
EXTT11=
EXTT12=
EXTT13=
EXTT14=
PLAYORDER=
